<?xml version="1.0" encoding="UTF-8"?>
<svg width="19px" height="13px" viewBox="0 0 19 13" version="1.1" xmlns="http://www.w3.org/2000/svg" xmlns:xlink="http://www.w3.org/1999/xlink">
    <title>arrow-left</title>
    <g id="Page-1" stroke="none" stroke-width="1" fill="none" fill-rule="evenodd">
        <g id="arrow-left" fill="#FD6000" fill-rule="nonzero">
            <path d="M18.2,6.5 C18.2,6.14101491 17.9089851,5.85 17.55,5.85 L2.2191,5.85 L6.3102,1.7602 C6.47461362,1.59578638 6.53882445,1.3561483 6.47864489,1.13155511 C6.41846533,0.906961921 6.24303808,0.731534672 6.01844489,0.671355109 C5.7938517,0.611175546 5.55421362,0.675386376 5.3898,0.8398 L0.1898,6.0398 C0.0675457891,6.16174554 -0.00116191879,6.32732456 -0.00116191879,6.5 C-0.00116191879,6.67267544 0.0675457891,6.83825446 0.1898,6.9602 L5.3898,12.1602 C5.55421362,12.3246136 5.7938517,12.3888245 6.01844489,12.3286449 C6.24303808,12.2684653 6.41846533,12.0930381 6.47864489,11.8684449 C6.53882445,11.6438517 6.47461362,11.4042136 6.3102,11.2398 L2.2191,7.15 L17.55,7.15 C17.9089851,7.15 18.2,6.85898509 18.2,6.5 Z" id="Path"></path>
        </g>
    </g>
</svg>