<?xml version="1.0" encoding="UTF-8"?>
<svg width="26px" height="25px" viewBox="0 0 26 25" version="1.1" xmlns="http://www.w3.org/2000/svg" xmlns:xlink="http://www.w3.org/1999/xlink">
    <title>github</title>
    <defs>
        <filter id="filter-1">
            <feColorMatrix in="SourceGraphic" type="matrix" values="0 0 0 0 1.000000 0 0 0 0 1.000000 0 0 0 0 1.000000 0 0 0 1.000000 0"></feColorMatrix>
        </filter>
    </defs>
    <g id="Page-1" stroke="none" stroke-width="1" fill="none" fill-rule="evenodd">
        <g id="github" transform="translate(-767.000000, -2570.000000)" filter="url(#filter-1)">
            <g transform="translate(767.000000, 2570.000000)">
                <path d="M13,0 C5.8175,0 0,5.50582794 0,12.3035261 C0,17.7478364 3.72125,22.3462793 8.88875,23.9764965 C9.53875,24.0841524 9.7825,23.7150466 9.7825,23.392079 C9.7825,23.0998703 9.76625,22.1309676 9.76625,21.1005473 C6.5,21.6695854 5.655,20.3469563 5.395,19.654883 C5.24875,19.3011566 4.615,18.2092187 4.0625,17.9170099 C3.6075,17.6863188 2.9575,17.1172807 4.04625,17.1019013 C5.07,17.0865219 5.80125,17.9939069 6.045,18.3630127 C7.215,20.2239211 9.08375,19.7010212 9.83125,19.3780536 C9.945,18.5783244 10.28625,18.0400452 10.66,17.732457 C7.7675,17.4248689 4.745,16.3636897 4.745,11.657591 C4.745,10.3195825 5.24875,9.21226518 6.0775,8.35101835 C5.9475,8.0434302 5.4925,6.78231877 6.2075,5.09058393 C6.2075,5.09058393 7.29625,4.76761637 9.7825,6.35169536 C10.8225,6.07486602 11.9275,5.93645135 13.0325,5.93645135 C14.1375,5.93645135 15.2425,6.07486602 16.2825,6.35169536 C18.76875,4.75223696 19.8575,5.09058393 19.8575,5.09058393 C20.5725,6.78231877 20.1175,8.0434302 19.9875,8.35101835 C20.81625,9.21226518 21.32,10.3042031 21.32,11.657591 C21.32,16.3790691 18.28125,17.4248689 15.38875,17.732457 C15.86,18.1169422 16.26625,18.8551538 16.26625,20.0086093 C16.26625,21.654206 16.25,22.976835 16.25,23.392079 C16.25,23.7150466 16.49375,24.0995318 17.14375,23.9764965 C22.4357876,22.286171 25.9990724,17.5895873 26,12.3035261 C26,5.50582794 20.1825,0 13,0 Z" id="Path" fill="#000000" fill-rule="nonzero"></path>
            </g>
        </g>
    </g>
</svg>