<?xml version="1.0" encoding="UTF-8"?>
<svg width="25px" height="25px" viewBox="0 0 25 25" version="1.1" xmlns="http://www.w3.org/2000/svg" xmlns:xlink="http://www.w3.org/1999/xlink">
    <title>linkedin</title>
    <defs>
        <filter id="filter-1">
            <feColorMatrix in="SourceGraphic" type="matrix" values="0 0 0 0 1.000000 0 0 0 0 1.000000 0 0 0 0 1.000000 0 0 0 1.000000 0"></feColorMatrix>
        </filter>
    </defs>
    <g id="Page-1" stroke="none" stroke-width="1" fill="none" fill-rule="evenodd">
        <g id="linkedin" transform="translate(-768.000000, -2507.000000)" filter="url(#filter-1)">
            <g transform="translate(768.000000, 2507.000000)">
                <path d="M0,1.790625 C0,0.8015625 0.821875,0 1.8359375,0 L23.1640625,0 C24.178125,0 25,0.8015625 25,1.790625 L25,23.209375 C25,24.1984375 24.178125,25 23.1640625,25 L1.8359375,25 C0.821875,25 0,24.1984375 0,23.209375 L0,1.790625 Z M7.7234375,20.928125 L7.7234375,9.6390625 L3.971875,9.6390625 L3.971875,20.928125 L7.7234375,20.928125 Z M5.8484375,8.096875 C7.15625,8.096875 7.9703125,7.23125 7.9703125,6.146875 C7.946875,5.0390625 7.1578125,4.196875 5.8734375,4.196875 C4.5890625,4.196875 3.75,5.040625 3.75,6.146875 C3.75,7.23125 4.5640625,8.096875 5.8234375,8.096875 L5.8484375,8.096875 Z M13.5171875,20.928125 L13.5171875,14.6234375 C13.5171875,14.2859375 13.5421875,13.9484375 13.6421875,13.7078125 C13.9125,13.034375 14.5296875,12.3359375 15.5671875,12.3359375 C16.925,12.3359375 17.4671875,13.3703125 17.4671875,14.8890625 L17.4671875,20.928125 L21.21875,20.928125 L21.21875,14.453125 C21.21875,10.984375 19.36875,9.371875 16.9,9.371875 C14.909375,9.371875 14.0171875,10.465625 13.5171875,11.2359375 L13.5171875,11.275 L13.4921875,11.275 C13.5004859,11.2619569 13.5088193,11.248936 13.5171875,11.2359375 L13.5171875,9.6390625 L9.7671875,9.6390625 C9.8140625,10.6984375 9.7671875,20.928125 9.7671875,20.928125 L13.5171875,20.928125 L13.5171875,20.928125 Z" id="Shape" fill="#000000" fill-rule="nonzero"></path>
            </g>
        </g>
    </g>
</svg>