<?xml version="1.0" encoding="UTF-8"?>
<svg width="26px" height="26px" viewBox="0 0 26 26" version="1.1" xmlns="http://www.w3.org/2000/svg" xmlns:xlink="http://www.w3.org/1999/xlink">
    <title>telephone-fill</title>
    <defs>
        <filter id="filter-1">
            <feColorMatrix in="SourceGraphic" type="matrix" values="0 0 0 0 1.000000 0 0 0 0 1.000000 0 0 0 0 1.000000 0 0 0 1.000000 0"></feColorMatrix>
        </filter>
    </defs>
    <g id="Page-1" stroke="none" stroke-width="1" fill="none" fill-rule="evenodd">
        <g id="telephone-fill" transform="translate(-402.000000, -2563.000000)" filter="url(#filter-1)">
            <g transform="translate(402.000000, 2563.000000)">
                <path d="M3.06379432,0.829071101 C3.63893952,0.254747004 4.43286599,-0.0451434023 5.24405214,0.00552077859 C6.0552383,0.0561849594 6.80568661,0.452532244 7.30491149,1.09395818 L10.2216951,4.84137902 C10.7563034,5.52878535 10.9447975,6.42420118 10.7335541,7.2692397 L9.84470695,10.8281519 C9.75123227,11.2030852 9.86098682,11.5995886 10.1339479,11.8730746 L14.1264479,15.8658816 C14.4002526,16.1394311 14.7975025,16.2492384 15.1729151,16.1551448 L18.7299287,15.2662293 C19.5748194,15.0549642 20.4699231,15.2437054 21.1576027,15.7781276 L24.9047353,18.6935105 C26.2518181,19.7416833 26.3753143,21.7323991 25.169602,22.936579 L23.4894046,24.6169056 C22.2869423,25.8194604 20.4897486,26.3476095 18.814426,25.7577076 C14.526483,24.2488683 10.63325,21.7938878 7.42353278,18.5748801 C4.20497777,15.3653843 1.75019879,11.4724275 0.241257712,7.18473585 C-0.346973866,5.51090954 0.181134594,3.71195253 1.38359694,2.5093977 L3.06379432,0.829071101 Z" id="Path" fill="#000000" fill-rule="nonzero"></path>
            </g>
        </g>
    </g>
</svg>